<svg width="252" height="245" viewBox="0 0 252 245" fill="none" xmlns="http://www.w3.org/2000/svg">
<path d="M0 148C0 131.984 12.9837 119 29 119H97C113.016 119 126 131.984 126 148V182V216C126 232.016 113.016 245 97 245H29C12.9837 245 0 232.016 0 216V148Z" fill="#EE4239"/>
<path d="M126 29C126 12.9837 138.984 0 155 0H223C239.016 0 252 12.9837 252 29V63V97C252 113.016 239.016 126 223 126H155C138.984 126 126 113.016 126 97V29Z" fill="#EE4239"/>
<circle cx="63" cy="182" r="41" fill="#FDBD21"/>
<circle cx="188.5" cy="63" r="41" fill="#FDBD21"/>
<path d="M56.9378 10.5C59.6321 5.83334 66.3679 5.83333 69.0622 10.5L111.497 84C114.192 88.6667 110.824 94.5 105.435 94.5H20.5648C15.1762 94.5 11.8083 88.6667 14.5026 84L56.9378 10.5Z" fill="#1580C2"/>
<path d="M195.062 234.5C192.368 239.167 185.632 239.167 182.938 234.5L140.503 161C137.808 156.333 141.176 150.5 146.565 150.5H231.435C236.824 150.5 240.192 156.333 237.497 161L195.062 234.5Z" fill="#1580C2"/>
</svg>
