<svg width="164" height="159" viewBox="0 0 164 159" fill="none" xmlns="http://www.w3.org/2000/svg">
<path d="M0 106C0 89.9837 12.9837 77 29 77H53C69.0163 77 82 89.9837 82 106V118V130C82 146.016 69.0163 159 53 159H29C12.9837 159 0 146.016 0 130V106Z" fill="#EE4239"/>
<path d="M82 29C82 12.9837 94.9837 0 111 0H135C151.016 0 164 12.9837 164 29V41V53C164 69.0163 151.016 82 135 82H111C94.9837 82 82 69.0163 82 53V29Z" fill="#EE4239"/>
<circle cx="40.5" cy="118.5" r="26.5" fill="#FDBD21"/>
<circle cx="122.5" cy="40.5" r="26.5" fill="#FDBD21"/>
<path d="M34.9378 10.5C37.6321 5.83333 44.3679 5.83333 47.0622 10.5L70.4449 51C73.1392 55.6667 69.7713 61.5 64.3827 61.5H17.6173C12.2287 61.5 8.86084 55.6667 11.5551 51L34.9378 10.5Z" fill="#1580C2"/>
<path d="M129.062 148.5C126.368 153.167 119.632 153.167 116.938 148.5L93.5551 108C90.8608 103.333 94.2287 97.5 99.6173 97.5H146.383C151.771 97.5 155.139 103.333 152.445 108L129.062 148.5Z" fill="#1580C2"/>
</svg>
